# This file uses centimeters as units for non-parametric coordinates.

mtllib newmesh.mtl
g default
v 0.792418 0.788532 -0.003904
v 0.753635 0.543661 -0.003904
v 0.641080 0.322760 -0.003904
v 0.465772 0.147451 -0.003904
v 0.244871 0.034897 -0.003904
v -0.000000 -0.003887 -0.003904
v -0.244871 0.034897 -0.003904
v -0.465772 0.147451 -0.003904
v -0.641080 0.322760 -0.003904
v -0.753635 0.543661 -0.003904
v -0.792419 0.788532 -0.003904
v -0.753635 1.033402 -0.003904
v -0.641080 1.254304 -0.003904
v -0.465772 1.429612 -0.003904
v -0.244871 1.542167 -0.003904
v 0.000000 1.580950 -0.003904
v 0.244871 1.542166 -0.003904
v 0.465772 1.429612 -0.003904
v 0.641080 1.254303 -0.003904
v 0.753635 1.033402 -0.003904
v 0.792418 0.788532 -8.770704
v 0.753635 0.543661 -8.770704
v 0.641080 0.322760 -8.770704
v 0.465772 0.147451 -8.770704
v 0.244871 0.034897 -8.770704
v -0.000000 -0.003887 -8.770704
v -0.244871 0.034897 -8.770704
v -0.465772 0.147451 -8.770704
v -0.641080 0.322760 -8.770704
v -0.753635 0.543661 -8.770704
v -0.792419 0.788532 -8.770704
v -0.753635 1.033402 -8.770704
v -0.641080 1.254304 -8.770704
v -0.465772 1.429612 -8.770704
v -0.244871 1.542167 -8.770704
v 0.000000 1.580950 -8.770704
v 0.244871 1.542166 -8.770704
v 0.465772 1.429612 -8.770704
v 0.641080 1.254303 -8.770704
v 0.753635 1.033402 -8.770704
v 0.792664 0.788532 -8.770704
v 0.753869 0.543585 -8.770704
v 0.641279 0.322615 -8.770704
v 0.465916 0.147252 -8.770704
v 0.244947 0.034663 -8.770704
v 0.000000 -0.004133 -8.770704
v -0.244947 0.034663 -8.770704
v -0.465916 0.147252 -8.770704
v -0.641279 0.322615 -8.770704
v -0.753869 0.543585 -8.770704
v -0.792665 0.788531 -8.770704
v -0.753869 1.033478 -8.770704
v -0.641279 1.254448 -8.770704
v -0.465917 1.429811 -8.770704
v -0.244947 1.542400 -8.770704
v 0.000000 1.581196 -8.770704
v 0.244947 1.542400 -8.770704
v 0.465917 1.429811 -8.770704
v 0.641279 1.254448 -8.770704
v 0.753869 1.033478 -8.770704
v 0.792664 0.788532 -0.003904
v 0.753869 0.543585 -0.003904
v 0.641279 0.322615 -0.003904
v 0.465916 0.147252 -0.003904
v 0.244947 0.034663 -0.003904
v 0.000000 -0.004133 -0.003904
v -0.244947 0.034663 -0.003904
v -0.465916 0.147252 -0.003904
v -0.641279 0.322615 -0.003904
v -0.753869 0.543585 -0.003904
v -0.792665 0.788531 -0.003904
v -0.753869 1.033478 -0.003904
v -0.641279 1.254448 -0.003904
v -0.465917 1.429811 -0.003904
v -0.244947 1.542400 -0.003904
v 0.000000 1.581196 -0.003904
v 0.244947 1.542400 -0.003904
v 0.465917 1.429811 -0.003904
v 0.641279 1.254448 -0.003904
v 0.753869 1.033478 -0.003904
v 0.641279 1.254448 -5.495971
v 0.753869 1.033478 -5.495971
v 0.792664 0.788532 -5.495971
v 0.753869 0.543585 -5.495971
v 0.641279 0.322615 -5.495971
v 0.465916 0.147252 -5.495971
v 0.244947 0.034663 -5.495971
v 0.000000 -0.004133 -5.495971
v -0.244947 0.034663 -5.495971
v -0.465916 0.147252 -5.495971
v -0.641279 0.322615 -5.495971
v -0.753869 0.543585 -5.495971
v -0.792665 0.788531 -5.495971
v -0.753869 1.033478 -5.495971
v -0.641279 1.254448 -5.495971
v -0.465917 1.429811 -5.495971
v -0.244947 1.542400 -5.495971
v 0.000000 1.581196 -5.495971
v 0.244947 1.542400 -5.495971
v 0.465917 1.429811 -5.495971
vt 0.000000 1.000000
vt 0.050000 1.000000
vt 0.100000 1.000000
vt 0.150000 1.000000
vt 0.200000 1.000000
vt 0.250000 1.000000
vt 0.300000 1.000000
vt 0.350000 1.000000
vt 0.400000 1.000000
vt 0.450000 1.000000
vt 0.500000 1.000000
vt 0.550000 1.000000
vt 0.600000 1.000000
vt 0.650000 1.000000
vt 0.700000 1.000000
vt 0.750000 1.000000
vt 0.800000 1.000000
vt 0.850000 1.000000
vt 0.900000 1.000000
vt 0.950000 1.000000
vt 1.000000 1.000000
vt 0.000000 0.750000
vt 0.050000 0.750000
vt 0.100000 0.750000
vt 0.150000 0.750000
vt 0.200000 0.750000
vt 0.250000 0.750000
vt 0.300000 0.750000
vt 0.350000 0.750000
vt 0.400000 0.750000
vt 0.450000 0.750000
vt 0.500000 0.750000
vt 0.550000 0.750000
vt 0.600000 0.750000
vt 0.650000 0.750000
vt 0.700000 0.750000
vt 0.750000 0.750000
vt 0.800000 0.750000
vt 0.850000 0.750000
vt 0.900000 0.750000
vt 0.950000 0.750000
vt 1.000000 0.750000
vt 0.000000 0.500000
vt 0.050000 0.500000
vt 0.100000 0.500000
vt 0.150000 0.500000
vt 0.200000 0.500000
vt 0.250000 0.500000
vt 0.300000 0.500000
vt 0.350000 0.500000
vt 0.400000 0.500000
vt 0.450000 0.500000
vt 0.500000 0.500000
vt 0.550000 0.500000
vt 0.600000 0.500000
vt 0.650000 0.500000
vt 0.700000 0.500000
vt 0.750000 0.500000
vt 0.800000 0.500000
vt 0.850000 0.500000
vt 0.900000 0.500000
vt 0.950000 0.500000
vt 1.000000 0.500000
vt 0.000000 0.250000
vt 0.050000 0.250000
vt 0.100000 0.250000
vt 0.150000 0.250000
vt 0.200000 0.250000
vt 0.250000 0.250000
vt 0.300000 0.250000
vt 0.350000 0.250000
vt 0.400000 0.250000
vt 0.450000 0.250000
vt 0.500000 0.250000
vt 0.550000 0.250000
vt 0.600000 0.250000
vt 0.650000 0.250000
vt 0.700000 0.250000
vt 0.750000 0.250000
vt 0.800000 0.250000
vt 0.850000 0.250000
vt 0.900000 0.250000
vt 0.950000 0.250000
vt 1.000000 0.250000
vt 0.000000 0.000000
vt 0.050000 0.000000
vt 0.100000 0.000000
vt 0.150000 0.000000
vt 0.200000 0.000000
vt 0.250000 0.000000
vt 0.300000 0.000000
vt 0.350000 0.000000
vt 0.400000 0.000000
vt 0.450000 0.000000
vt 0.500000 0.000000
vt 0.550000 0.000000
vt 0.600000 0.000000
vt 0.650000 0.000000
vt 0.700000 0.000000
vt 0.750000 0.000000
vt 0.800000 0.000000
vt 0.850000 0.000000
vt 0.900000 0.000000
vt 0.950000 0.000000
vt 1.000000 0.000000
vt 0.900000 0.375000
vt 0.950000 0.375000
vt 0.000000 0.375000
vt 1.000000 0.375000
vt 0.050000 0.375000
vt 0.100000 0.375000
vt 0.150000 0.375000
vt 0.200000 0.375000
vt 0.250000 0.375000
vt 0.300000 0.375000
vt 0.350000 0.375000
vt 0.400000 0.375000
vt 0.450000 0.375000
vt 0.500000 0.375000
vt 0.550000 0.375000
vt 0.600000 0.375000
vt 0.650000 0.375000
vt 0.700000 0.375000
vt 0.750000 0.375000
vt 0.800000 0.375000
vt 0.850000 0.375000
vn -0.951056 0.309017 0.000000
vn -1.000000 0.000001 -0.000000
vn -1.000000 0.000001 -0.000000
vn -0.951056 0.309017 0.000000
vn -0.809017 0.587785 0.000000
vn -0.809017 0.587785 0.000000
vn -0.587785 0.809017 0.000000
vn -0.587785 0.809017 0.000000
vn -0.309017 0.951057 0.000000
vn -0.309017 0.951057 0.000000
vn 0.000000 1.000000 0.000000
vn 0.000000 1.000000 0.000000
vn 0.309017 0.951056 0.000000
vn 0.309017 0.951056 0.000000
vn 0.587785 0.809017 0.000000
vn 0.587785 0.809017 0.000000
vn 0.809017 0.587785 0.000000
vn 0.809017 0.587785 0.000000
vn 0.951056 0.309017 0.000000
vn 0.951056 0.309017 0.000000
vn 1.000000 -0.000000 -0.000000
vn 1.000000 -0.000000 -0.000000
vn 0.951057 -0.309017 -0.000000
vn 0.951057 -0.309017 -0.000000
vn 0.809017 -0.587785 -0.000000
vn 0.809017 -0.587785 -0.000000
vn 0.587785 -0.809017 -0.000000
vn 0.587785 -0.809017 -0.000000
vn 0.309017 -0.951056 -0.000000
vn 0.309017 -0.951056 -0.000000
vn -0.000000 -1.000000 -0.000000
vn -0.000000 -1.000000 -0.000000
vn -0.309017 -0.951056 -0.000000
vn -0.309017 -0.951056 -0.000000
vn -0.587785 -0.809017 -0.000000
vn -0.587785 -0.809017 -0.000000
vn -0.809017 -0.587785 -0.000000
vn -0.809017 -0.587785 -0.000000
vn -0.951057 -0.309016 -0.000000
vn -0.951057 -0.309016 -0.000000
vn 0.000000 -0.000016 -1.000000
vn 0.000000 0.000044 -1.000000
vn 0.000000 0.000044 -1.000000
vn 0.000000 -0.000016 -1.000000
vn 0.000000 -0.000029 -1.000000
vn 0.000000 -0.000029 -1.000000
vn 0.000000 -0.000348 -1.000000
vn 0.000000 -0.000348 -1.000000
vn 0.000000 -0.000381 -1.000000
vn 0.000000 -0.000381 -1.000000
vn 0.000000 0.000286 -1.000000
vn 0.000000 0.000286 -1.000000
vn 0.000000 0.000721 -1.000000
vn 0.000000 0.000721 -1.000000
vn 0.000000 0.000416 -1.000000
vn 0.000000 0.000416 -1.000000
vn 0.000000 0.000403 -1.000000
vn 0.000000 0.000402 -1.000000
vn 0.000000 0.000343 -1.000000
vn 0.000000 0.000344 -1.000000
vn 0.000000 -0.000188 -1.000000
vn 0.000000 -0.000188 -1.000000
vn 0.000000 -0.000544 -1.000000
vn 0.000000 -0.000544 -1.000000
vn 0.000000 -0.000386 -1.000000
vn 0.000000 -0.000386 -1.000000
vn 0.000000 -0.000522 -1.000000
vn 0.000000 -0.000522 -1.000000
vn 0.000000 -0.000475 -1.000000
vn 0.000000 -0.000476 -1.000000
vn 0.000000 0.000734 -1.000000
vn 0.000000 0.000733 -1.000000
vn 0.000000 0.000284 -1.000000
vn 0.000000 0.000285 -1.000000
vn 0.000000 -0.000361 -1.000000
vn 0.000000 -0.000361 -1.000000
vn 0.000000 0.000066 -1.000000
vn 0.000000 0.000066 -1.000000
vn 0.000000 0.000071 -1.000000
vn 0.000000 0.000071 -1.000000
vn 0.951056 -0.309017 -0.000000
vn 1.000000 -0.000001 0.000000
vn 1.000000 -0.000001 0.000000
vn 0.951057 -0.309017 -0.000000
vn 0.809017 -0.587785 -0.000000
vn 0.809017 -0.587785 -0.000000
vn 0.587785 -0.809017 -0.000000
vn 0.587785 -0.809017 -0.000000
vn 0.309017 -0.951056 -0.000000
vn 0.309017 -0.951056 -0.000000
vn 0.000000 -1.000000 -0.000000
vn 0.000000 -1.000000 -0.000000
vn -0.309017 -0.951056 -0.000000
vn -0.309017 -0.951057 -0.000000
vn -0.587785 -0.809017 -0.000000
vn -0.587785 -0.809017 -0.000000
vn -0.809017 -0.587785 -0.000000
vn -0.809017 -0.587785 -0.000000
vn -0.951056 -0.309017 -0.000000
vn -0.951056 -0.309017 -0.000000
vn -1.000000 -0.000000 -0.000000
vn -1.000000 -0.000000 -0.000000
vn -0.951056 0.309017 0.000000
vn -0.951057 0.309017 0.000000
vn -0.809017 0.587785 0.000000
vn -0.809017 0.587785 0.000000
vn -0.587785 0.809017 0.000000
vn -0.587785 0.809017 0.000000
vn -0.309017 0.951056 0.000000
vn -0.309017 0.951057 0.000000
vn -0.000000 1.000000 0.000000
vn -0.000000 1.000000 0.000000
vn 0.309017 0.951057 0.000000
vn 0.309017 0.951056 0.000000
vn 0.587785 0.809017 0.000000
vn 0.587785 0.809017 0.000000
vn 0.809017 0.587785 0.000000
vn 0.809017 0.587785 0.000000
vn 0.951057 0.309016 0.000000
vn 0.951057 0.309016 0.000000
vn 0.000000 -0.000016 1.000000
vn 0.000000 0.000044 1.000000
vn 0.000000 0.000044 1.000000
vn 0.000000 -0.000016 1.000000
vn 0.000000 -0.000029 1.000000
vn 0.000000 -0.000029 1.000000
vn 0.000000 -0.000348 1.000000
vn 0.000000 -0.000348 1.000000
vn 0.000000 -0.000381 1.000000
vn 0.000000 -0.000381 1.000000
vn 0.000000 0.000286 1.000000
vn 0.000000 0.000286 1.000000
vn 0.000000 0.000721 1.000000
vn 0.000000 0.000721 1.000000
vn 0.000000 0.000416 1.000000
vn 0.000000 0.000416 1.000000
vn 0.000000 0.000402 1.000000
vn 0.000000 0.000403 1.000000
vn 0.000000 0.000344 1.000000
vn 0.000000 0.000343 1.000000
vn 0.000000 -0.000188 1.000000
vn 0.000000 -0.000188 1.000000
vn 0.000000 -0.000544 1.000000
vn 0.000000 -0.000544 1.000000
vn 0.000000 -0.000386 1.000000
vn 0.000000 -0.000386 1.000000
vn 0.000000 -0.000522 1.000000
vn 0.000000 -0.000522 1.000000
vn 0.000000 -0.000476 1.000000
vn 0.000000 -0.000475 1.000000
vn 0.000000 0.000733 1.000000
vn 0.000000 0.000734 1.000000
vn 0.000000 0.000285 1.000000
vn 0.000000 0.000284 1.000000
vn 0.000000 -0.000361 1.000000
vn 0.000000 -0.000361 1.000000
vn 0.000000 0.000066 1.000000
vn 0.000000 0.000066 1.000000
vn 0.000000 0.000071 1.000000
vn 0.000000 0.000071 1.000000
vn 0.809017 0.587785 0.000000
vn 0.951057 0.309016 0.000000
vn 1.000000 -0.000001 0.000000
vn 0.951056 -0.309017 -0.000000
vn 0.809017 -0.587785 -0.000000
vn 0.587785 -0.809017 -0.000000
vn 0.309017 -0.951057 -0.000000
vn -0.000000 -1.000000 -0.000000
vn -0.309017 -0.951056 -0.000000
vn -0.587785 -0.809017 -0.000000
vn -0.809017 -0.587785 -0.000000
vn -0.951056 -0.309017 -0.000000
vn -1.000000 -0.000000 -0.000000
vn -0.951056 0.309017 0.000000
vn -0.809017 0.587785 0.000000
vn -0.587785 0.809017 0.000000
vn -0.309017 0.951056 0.000000
vn -0.000000 1.000000 0.000000
vn 0.309017 0.951056 0.000000
vn 0.587785 0.809017 0.000000
s 1
g pPipe1
usemtl initialShadingGroup
f 2/2/1 1/1/2 21/22/3 22/23/4
f 3/3/5 2/2/1 22/23/4 23/24/6
f 4/4/7 3/3/5 23/24/6 24/25/8
f 5/5/9 4/4/7 24/25/8 25/26/10
f 6/6/11 5/5/9 25/26/10 26/27/12
f 7/7/13 6/6/11 26/27/12 27/28/14
f 8/8/15 7/7/13 27/28/14 28/29/16
f 9/9/17 8/8/15 28/29/16 29/30/18
f 10/10/19 9/9/17 29/30/18 30/31/20
f 11/11/21 10/10/19 30/31/20 31/32/22
f 12/12/23 11/11/21 31/32/22 32/33/24
f 13/13/25 12/12/23 32/33/24 33/34/26
f 14/14/27 13/13/25 33/34/26 34/35/28
f 15/15/29 14/14/27 34/35/28 35/36/30
f 16/16/31 15/15/29 35/36/30 36/37/32
f 17/17/33 16/16/31 36/37/32 37/38/34
f 18/18/35 17/17/33 37/38/34 38/39/36
f 19/19/37 18/18/35 38/39/36 39/40/38
f 20/20/39 19/19/37 39/40/38 40/41/40
f 1/21/2 20/20/39 40/41/40 21/42/3
s 2
f 22/23/41 21/22/42 41/43/43 42/44/44
f 23/24/45 22/23/41 42/44/44 43/45/46
f 24/25/47 23/24/45 43/45/46 44/46/48
f 25/26/49 24/25/47 44/46/48 45/47/50
f 26/27/51 25/26/49 45/47/50 46/48/52
f 27/28/53 26/27/51 46/48/52 47/49/54
f 28/29/55 27/28/53 47/49/54 48/50/56
f 29/30/57 28/29/55 48/50/56 49/51/58
f 30/31/59 29/30/57 49/51/58 50/52/60
f 31/32/61 30/31/59 50/52/60 51/53/62
f 32/33/63 31/32/61 51/53/62 52/54/64
f 33/34/65 32/33/63 52/54/64 53/55/66
f 34/35/67 33/34/65 53/55/66 54/56/68
f 35/36/69 34/35/67 54/56/68 55/57/70
f 36/37/71 35/36/69 55/57/70 56/58/72
f 37/38/73 36/37/71 56/58/72 57/59/74
f 38/39/75 37/38/73 57/59/74 58/60/76
f 39/40/77 38/39/75 58/60/76 59/61/78
f 40/41/79 39/40/77 59/61/78 60/62/80
f 21/42/42 40/41/79 60/62/80 41/63/43
s 3
f 42/44/81 41/43/82 83/108/83 84/110/84
f 43/45/85 42/44/81 84/110/84 85/111/86
f 44/46/87 43/45/85 85/111/86 86/112/88
f 45/47/89 44/46/87 86/112/88 87/113/90
f 46/48/91 45/47/89 87/113/90 88/114/92
f 47/49/93 46/48/91 88/114/92 89/115/94
f 48/50/95 47/49/93 89/115/94 90/116/96
f 49/51/97 48/50/95 90/116/96 91/117/98
f 50/52/99 49/51/97 91/117/98 92/118/100
f 51/53/101 50/52/99 92/118/100 93/119/102
f 52/54/103 51/53/101 93/119/102 94/120/104
f 53/55/105 52/54/103 94/120/104 95/121/106
f 54/56/107 53/55/105 95/121/106 96/122/108
f 55/57/109 54/56/107 96/122/108 97/123/110
f 56/58/111 55/57/109 97/123/110 98/124/112
f 57/59/113 56/58/111 98/124/112 99/125/114
f 58/60/115 57/59/113 99/125/114 100/126/116
f 59/61/117 58/60/115 100/126/116 81/106/118
f 60/62/119 59/61/117 81/106/118 82/107/120
f 41/63/82 60/62/119 82/107/120 83/109/83
s 4
f 62/65/121 61/64/122 1/85/123 2/86/124
f 63/66/125 62/65/121 2/86/124 3/87/126
f 64/67/127 63/66/125 3/87/126 4/88/128
f 65/68/129 64/67/127 4/88/128 5/89/130
f 66/69/131 65/68/129 5/89/130 6/90/132
f 67/70/133 66/69/131 6/90/132 7/91/134
f 68/71/135 67/70/133 7/91/134 8/92/136
f 69/72/137 68/71/135 8/92/136 9/93/138
f 70/73/139 69/72/137 9/93/138 10/94/140
f 71/74/141 70/73/139 10/94/140 11/95/142
f 72/75/143 71/74/141 11/95/142 12/96/144
f 73/76/145 72/75/143 12/96/144 13/97/146
f 74/77/147 73/76/145 13/97/146 14/98/148
f 75/78/149 74/77/147 14/98/148 15/99/150
f 76/79/151 75/78/149 15/99/150 16/100/152
f 77/80/153 76/79/151 16/100/152 17/101/154
f 78/81/155 77/80/153 17/101/154 18/102/156
f 79/82/157 78/81/155 18/102/156 19/103/158
f 80/83/159 79/82/157 19/103/158 20/104/160
f 61/84/122 80/83/159 20/104/160 1/105/123
s 3
f 82/107/120 81/106/118 79/82/161 80/83/162
f 83/109/83 82/107/120 80/83/162 61/84/163
f 84/110/84 83/108/83 61/64/163 62/65/164
f 85/111/86 84/110/84 62/65/164 63/66/165
f 86/112/88 85/111/86 63/66/165 64/67/166
f 87/113/90 86/112/88 64/67/166 65/68/167
f 88/114/92 87/113/90 65/68/167 66/69/168
f 89/115/94 88/114/92 66/69/168 67/70/169
f 90/116/96 89/115/94 67/70/169 68/71/170
f 91/117/98 90/116/96 68/71/170 69/72/171
f 92/118/100 91/117/98 69/72/171 70/73/172
f 93/119/102 92/118/100 70/73/172 71/74/173
f 94/120/104 93/119/102 71/74/173 72/75/174
f 95/121/106 94/120/104 72/75/174 73/76/175
f 96/122/108 95/121/106 73/76/175 74/77/176
f 97/123/110 96/122/108 74/77/176 75/78/177
f 98/124/112 97/123/110 75/78/177 76/79/178
f 99/125/114 98/124/112 76/79/178 77/80/179
f 100/126/116 99/125/114 77/80/179 78/81/180
f 81/106/118 100/126/116 78/81/180 79/82/161
